# xmcd
#
# Track frame offsets: 
#        150
#        30675
#        60450
#        85575
#        114453
#        141753
#        164028
#        193730
#        221180
#        248105
#
# Disc length: 3792 seconds
#
# Revision: 2
# Processed by: cddbd v1.5.2PL0 Copyright (c) Steve Scherf et al.
# Submitted via: ExactAudioCopy v0.99pb5
#
DISCID=8e0ece0a
DTITLE=Guayacan - Como En Un Baile
DYEAR=1996
DGENRE=Salsa
TTITLE0=Guayacan Cubano
TTITLE1=Guayacan Cumbiambero
TTITLE2=Guayacan Venezolano
TTITLE3=Guayacan Mix
TTITLE4=Guayacan Pasodobles
TTITLE5=Guayacan Vallenato
TTITLE6=Guayacan Dominicano
TTITLE7=Guayacan Currulao
TTITLE8=Guayacan De Serenata
TTITLE9=Guayacan Cumbiando
EXTD=YEAR: 1996
EXTT0=
EXTT1=
EXTT2=
EXTT3=
EXTT4=
EXTT5=
EXTT6=
EXTT7=
EXTT8=
EXTT9=
PLAYORDER=
